<svg width="474" height="93" viewBox="0 0 474 93" fill="none" xmlns="http://www.w3.org/2000/svg">
<path d="M0.643555 1.7666H31.7715C43.8971 1.7666 52.8896 3.57731 58.749 7.19873C64.6491 10.7795 67.5991 16.3743 67.5991 23.9834C67.5991 28.9883 66.3174 33.2607 63.7539 36.8008C61.1904 40.3408 57.8132 42.6195 53.6221 43.6367V44.2471C59.1559 45.7119 63.1639 48.1533 65.646 51.5713C68.1281 54.9893 69.3691 59.4245 69.3691 64.877C69.3691 72.9743 66.3174 79.3626 60.2139 84.042C54.151 88.6807 45.8706 91 35.3726 91H0.643555V1.7666ZM24.7524 36.0073H32.0156C35.4743 36.0073 38.1395 35.2952 40.0112 33.8711C41.9237 32.4469 42.8799 30.3311 42.8799 27.5234C42.8799 22.5186 39.0957 20.0161 31.5273 20.0161H24.7524V36.0073ZM24.7524 53.6465V72.3843H33.2363C40.764 72.3843 44.5278 69.2104 44.5278 62.8628C44.5278 59.8924 43.5106 57.6138 41.4761 56.0269C39.4823 54.4399 36.5729 53.6465 32.748 53.6465H24.7524ZM108.981 58.5293V91H84.8721V1.7666H114.108C138.359 1.7666 150.485 10.5557 150.485 28.1338C150.485 38.4691 145.439 46.4647 135.348 52.1206L161.349 91H134.005L115.084 58.5293H108.981ZM108.981 40.4019H113.498C121.92 40.4019 126.132 36.6787 126.132 29.2324C126.132 23.0882 122.002 20.0161 113.742 20.0161H108.981V40.4019ZM169.467 91V1.7666H193.698V91H169.467ZM252.78 20.2603C247.042 20.2603 242.567 22.6203 239.352 27.3403C236.138 32.0197 234.53 38.4894 234.53 46.7495C234.53 63.9207 241.061 72.5063 254.123 72.5063C258.069 72.5063 261.894 71.957 265.597 70.8584C269.3 69.7598 273.023 68.4373 276.767 66.8911V87.2769C269.32 90.5728 260.897 92.2207 251.498 92.2207C238.03 92.2207 227.694 88.3145 220.492 80.502C213.331 72.6895 209.75 61.3979 209.75 46.6274C209.75 37.3908 211.479 29.2731 214.938 22.2744C218.437 15.2757 223.442 9.90462 229.953 6.16113C236.504 2.37695 244.194 0.484863 253.024 0.484863C262.667 0.484863 271.884 2.5804 280.673 6.77148L273.288 25.7534C269.992 24.2072 266.696 22.9051 263.4 21.8472C260.104 20.7892 256.564 20.2603 252.78 20.2603ZM370.456 91H343.234L325.595 56.8813L318.454 61.1538V91H294.223V1.7666H318.454V40.5239C319.674 38.1232 322.136 34.3187 325.839 29.1104L344.577 1.7666H370.944L342.807 41.7446L370.456 91ZM438.51 63.9004C438.51 69.4342 437.106 74.3577 434.298 78.6709C431.491 82.9434 427.442 86.2799 422.152 88.6807C416.863 91.0407 410.657 92.2207 403.537 92.2207C397.596 92.2207 392.611 91.8138 388.583 91C384.555 90.1455 380.364 88.6807 376.01 86.6055V65.1211C380.608 67.4811 385.389 69.3325 390.353 70.6753C395.317 71.9774 399.875 72.6284 404.025 72.6284C407.606 72.6284 410.23 72.0181 411.898 70.7974C413.567 69.536 414.401 67.9287 414.401 65.9756C414.401 64.7549 414.055 63.6969 413.363 62.8018C412.712 61.8659 411.634 60.93 410.128 59.9941C408.664 59.0583 404.717 57.1458 398.288 54.2568C392.469 51.612 388.095 49.0485 385.165 46.5664C382.276 44.0843 380.119 41.236 378.695 38.0215C377.312 34.807 376.62 31.0024 376.62 26.6079C376.62 18.3885 379.611 11.9798 385.592 7.38184C391.574 2.78385 399.793 0.484863 410.25 0.484863C419.487 0.484863 428.907 2.62109 438.51 6.89355L431.125 25.5093C422.783 21.6844 415.581 19.772 409.518 19.772C406.385 19.772 404.106 20.3213 402.682 21.4199C401.258 22.5186 400.546 23.8817 400.546 25.5093C400.546 27.259 401.441 28.8255 403.231 30.209C405.062 31.5924 409.986 34.1152 418.002 37.7773C425.692 41.236 431.023 44.9591 433.993 48.9468C437.004 52.8937 438.51 57.8783 438.51 63.9004ZM447.909 80.8682C447.909 77.1247 449.008 74.2357 451.205 72.2012C453.443 70.1667 456.678 69.1494 460.91 69.1494C464.938 69.1494 468.03 70.1667 470.187 72.2012C472.344 74.2357 473.422 77.1247 473.422 80.8682C473.422 84.5303 472.303 87.3989 470.065 89.4741C467.868 91.5086 464.816 92.5259 460.91 92.5259C456.881 92.5259 453.708 91.5086 451.388 89.4741C449.069 87.4396 447.909 84.571 447.909 80.8682Z" fill="white"/>
</svg>
