<svg width="457" height="93" viewBox="0 0 457 93" fill="none" xmlns="http://www.w3.org/2000/svg">
<path d="M0.230469 1.7666H28.0015C40.6561 1.7666 49.8317 3.57731 55.5283 7.19873C61.2656 10.7795 64.1343 16.4964 64.1343 24.3496C64.1343 29.68 62.8729 34.0542 60.3501 37.4722C57.868 40.8901 54.5518 42.945 50.4014 43.6367V44.2471C56.0573 45.5085 60.1263 47.8685 62.6084 51.3271C65.1312 54.7858 66.3926 59.3838 66.3926 65.1211C66.3926 73.2591 63.4425 79.6068 57.5425 84.1641C51.6831 88.7214 43.7078 91 33.6167 91H0.230469V1.7666ZM19.1514 37.106H30.1377C35.2646 37.106 38.9674 36.3125 41.2461 34.7256C43.5654 33.1387 44.7251 30.5142 44.7251 26.8521C44.7251 23.4341 43.4637 20.9927 40.9409 19.5278C38.4588 18.0223 34.5119 17.2695 29.1001 17.2695H19.1514V37.106ZM19.1514 52.1206V75.375H31.4805C36.6888 75.375 40.534 74.3781 43.0161 72.3843C45.4982 70.3905 46.7393 67.3387 46.7393 63.229C46.7393 55.8234 41.4495 52.1206 30.8701 52.1206H19.1514ZM103.136 41.3784H109.239C115.221 41.3784 119.636 40.3815 122.484 38.3877C125.332 36.3939 126.756 33.2607 126.756 28.9883C126.756 24.7565 125.292 21.7454 122.362 19.9551C119.473 18.1647 114.977 17.2695 108.873 17.2695H103.136V41.3784ZM103.136 56.7593V91H84.2148V1.7666H110.216C122.341 1.7666 131.314 3.98421 137.132 8.41943C142.951 12.814 145.86 19.5075 145.86 28.5C145.86 33.749 144.416 38.4284 141.527 42.5381C138.638 46.6071 134.549 49.8013 129.259 52.1206C142.687 72.1808 151.435 85.1406 155.504 91H134.508L113.207 56.7593H103.136ZM166.734 91V1.7666H185.655V91H166.734ZM246.019 16.2319C238.898 16.2319 233.385 18.9175 229.479 24.2886C225.572 29.619 223.619 37.0653 223.619 46.6274C223.619 66.5249 231.086 76.4736 246.019 76.4736C252.285 76.4736 259.874 74.9071 268.785 71.7739V87.6431C261.461 90.6948 253.282 92.2207 244.249 92.2207C231.269 92.2207 221.34 88.2941 214.464 80.4409C207.587 72.547 204.149 61.2352 204.149 46.5054C204.149 37.228 205.838 29.1104 209.215 22.1523C212.592 15.1536 217.434 9.8029 223.741 6.1001C230.089 2.35661 237.515 0.484863 246.019 0.484863C254.686 0.484863 263.394 2.5804 272.142 6.77148L266.039 22.1523C262.702 20.5654 259.345 19.182 255.968 18.002C252.59 16.8219 249.274 16.2319 246.019 16.2319ZM359.605 91H338.121L314.745 53.4023L306.749 59.1396V91H287.828V1.7666H306.749V42.5991L314.195 32.1011L338.365 1.7666H359.361L328.233 41.2563L359.605 91ZM423.509 66.2197C423.509 74.2764 420.6 80.624 414.781 85.2627C409.003 89.9014 400.947 92.2207 390.611 92.2207C381.09 92.2207 372.667 90.4303 365.343 86.8496V69.2715C371.365 71.957 376.451 73.8491 380.602 74.9478C384.793 76.0464 388.618 76.5957 392.076 76.5957C396.227 76.5957 399.4 75.8022 401.598 74.2153C403.836 72.6284 404.955 70.2684 404.955 67.1353C404.955 65.3856 404.466 63.8394 403.49 62.4966C402.513 61.1131 401.069 59.7907 399.156 58.5293C397.285 57.2679 393.439 55.2537 387.621 52.4868C382.168 49.9233 378.079 47.4616 375.353 45.1016C372.626 42.7415 370.449 39.995 368.822 36.8618C367.194 33.7287 366.38 30.0666 366.38 25.8755C366.38 17.9816 369.046 11.7764 374.376 7.25977C379.747 2.74316 387.153 0.484863 396.593 0.484863C401.231 0.484863 405.646 1.03418 409.837 2.13281C414.069 3.23145 418.484 4.77767 423.082 6.77148L416.979 21.481C412.218 19.5278 408.271 18.1647 405.138 17.3916C402.045 16.6185 398.993 16.2319 395.982 16.2319C392.402 16.2319 389.655 17.0661 387.743 18.7344C385.83 20.4027 384.874 22.5796 384.874 25.2651C384.874 26.9334 385.261 28.3983 386.034 29.6597C386.807 30.8804 388.028 32.0807 389.696 33.2607C391.405 34.4001 395.413 36.4753 401.72 39.4863C410.061 43.474 415.778 47.4819 418.871 51.5103C421.963 55.4979 423.509 60.401 423.509 66.2197ZM435.594 82.272C435.594 78.854 436.51 76.2702 438.341 74.5205C440.172 72.7708 442.837 71.896 446.336 71.896C449.714 71.896 452.318 72.7912 454.149 74.5815C456.021 76.3719 456.957 78.9354 456.957 82.272C456.957 85.4865 456.021 88.0296 454.149 89.9014C452.277 91.7324 449.673 92.6479 446.336 92.6479C442.918 92.6479 440.274 91.7528 438.402 89.9624C436.53 88.1313 435.594 85.5679 435.594 82.272Z" fill="white"/>
</svg>
