<svg width="20" height="20" viewBox="0 0 20 20" fill="none" xmlns="http://www.w3.org/2000/svg">
<rect width="20" height="20" rx="3" fill="#373333"/>
<path d="M3.2 4H7.35039C8.96714 4 10.1661 4.24143 10.9474 4.72428C11.7341 5.20171 12.1274 5.9477 12.1274 6.96224C12.1274 7.62956 11.9565 8.19922 11.6147 8.67122C11.2729 9.14323 10.8226 9.44705 10.2638 9.58268V9.66406C11.0016 9.85938 11.536 10.1849 11.867 10.6406C12.1979 11.0964 12.3634 11.6877 12.3634 12.4147C12.3634 13.4944 11.9565 14.3461 11.1427 14.9701C10.3343 15.5885 9.23027 15.8978 7.83053 15.8978H3.2V4ZM6.41451 8.56543H7.38294C7.84409 8.56543 8.19945 8.47049 8.44902 8.2806C8.70401 8.09071 8.83151 7.80859 8.83151 7.43424C8.83151 6.76693 8.32695 6.43327 7.31784 6.43327H6.41451V8.56543ZM6.41451 10.9173V13.4157H7.5457C8.54939 13.4157 9.05123 12.9925 9.05123 12.1462C9.05123 11.7501 8.9156 11.4463 8.64433 11.2347C8.37849 11.0231 7.99058 10.9173 7.4806 10.9173H6.41451Z" fill="#FFB13C"/>
<path d="M13.8445 14.5469C13.8445 14.0477 13.991 13.6625 14.284 13.3913C14.5824 13.12 15.0137 12.9844 15.5779 12.9844C16.115 12.9844 16.5274 13.12 16.8149 13.3913C17.1024 13.6625 17.2462 14.0477 17.2462 14.5469C17.2462 15.0352 17.097 15.4176 16.7986 15.6943C16.5057 15.9656 16.0988 16.1012 15.5779 16.1012C15.0408 16.1012 14.6176 15.9656 14.3084 15.6943C13.9991 15.4231 13.8445 15.0406 13.8445 14.5469Z" fill="#FFB13C"/>
</svg>
