<svg width="1824" height="500" viewBox="0 0 1824 500" fill="none" xmlns="http://www.w3.org/2000/svg">
<path d="M964.677 65.2183C955.836 39.8986 938.776 23.1296 910.925 23.1296C894.903 23.1296 878.673 29.4803 867.632 42.3891C855.803 56.4602 847.75 80.6591 848.331 105.149C847.75 129.638 855.803 153.837 867.632 167.908C878.673 180.817 894.903 187.167 910.925 187.167C940.395 187.167 958.617 168.738 968.828 130.468H995.31C986.717 176.417 955.338 210.827 909.596 210.246C884.526 209.955 862.444 197.876 853.893 189.616C830.483 167.285 821.642 133.457 821.891 105.107C822.14 76.7574 830.442 42.9287 853.893 20.6391C862.402 12.3791 884.484 0.258933 909.555 0.00988774C951.976 -0.571218 979.578 24.4993 991.449 65.2183H964.677V65.2183ZM1127.84 181.896C1127.84 186.047 1133.11 190.447 1138.88 190.447C1140.54 190.447 1142.5 190.447 1144.16 189.616V207.797C1138.59 209.457 1133.94 210.246 1126.22 210.246C1115.72 210.246 1105.51 198.956 1104.68 189.367C1093.39 197.876 1077.66 210.246 1058.65 210.246C1026.4 210.246 1006.27 193.477 1008.22 165.168C1009.84 141.219 1023.66 131.838 1038.48 127.438C1064.71 119.718 1078.2 122.208 1091.98 118.888C1095.01 118.348 1103.52 115.608 1103.52 107.888V90.7869C1101.61 80.6176 1081.52 75.9687 1066.12 75.9687C1038.81 75.9687 1037.15 96.0584 1036.61 102.658H1014.82L1015.69 89.9983C1017.64 81.7383 1024.53 68.7879 1039.64 61.6486C1047.11 58.079 1056.16 55.2979 1069.44 55.2979C1077.2 55.2979 1085.17 55.5885 1094.26 57.7884C1112.44 61.9392 1127.35 71.2784 1127.93 85.5985V181.896H1127.84V181.896ZM1103.85 133.166C1085.13 140.596 1059.23 140.056 1045.7 146.116C1041.55 148.026 1032.21 154.875 1031.92 165.625C1031.38 183.515 1044.62 190.114 1057.28 190.405C1088.74 191.235 1103.85 166.746 1103.85 162.055V133.166V133.166ZM1169.97 161.267C1170.84 175.296 1178.81 184.386 1195.09 189.326C1200.56 190.986 1207.99 190.986 1215.47 190.986C1222.6 189.077 1229.83 187.126 1233.65 184.386C1236.38 182.322 1238.61 179.667 1240.18 176.62C1241.75 173.573 1242.61 170.212 1242.69 166.787C1242.69 159.316 1238.59 152.177 1227 148.316C1208.82 143.917 1185.66 139.558 1173.25 133.747C1161.96 129.596 1152 119.718 1152 98.5073C1152 71.0293 1176.82 55.2979 1205.21 55.2979C1252.86 55.2979 1258.67 83.6476 1259.01 99.8771H1236.34C1236.34 92.4887 1235.51 76.7574 1203.3 76.7574C1189.23 76.7574 1178.73 84.5193 1175.16 92.1567C1174.29 93.9054 1173.77 95.8108 1173.65 97.7613C1173.52 99.7117 1173.78 101.668 1174.42 103.516C1175.06 105.363 1176.06 107.065 1177.36 108.522C1178.66 109.978 1180.24 111.16 1182.01 111.997C1189.98 116.356 1201.6 119.137 1215.92 122.706C1227.5 124.657 1239.12 127.397 1249.29 133.706C1262 141.136 1266.98 155.456 1265.03 169.485C1263.07 183.515 1254.23 197.254 1239.12 204.144C1231.65 207.423 1222.31 209.374 1212.64 210.204C1203.01 210.204 1193.05 210.204 1184.79 208.295C1151.13 200.574 1148.14 174.715 1148.14 161.225H1169.97V161.267V161.267ZM1296.78 161.267C1297.57 175.296 1305.58 184.386 1321.85 189.326C1327.37 190.986 1334.8 190.986 1342.27 190.986C1349.45 189.077 1356.59 187.126 1360.45 184.386C1363.21 182.335 1365.46 179.685 1367.04 176.636C1368.62 173.588 1369.49 170.22 1369.58 166.787C1369.58 159.316 1365.43 152.177 1353.85 148.316C1335.67 143.917 1312.51 139.558 1300.1 133.747C1288.81 129.596 1278.85 119.718 1278.85 98.5073C1278.85 71.0293 1303.71 55.2979 1332.06 55.2979C1379.75 55.2979 1385.56 83.6476 1385.81 99.8771H1363.19C1363.19 92.4887 1362.36 76.7574 1330.15 76.7574C1316.04 76.7574 1305.58 84.5193 1302.01 92.1567C1301.14 93.9079 1300.62 95.8156 1300.5 97.7679C1300.37 99.7202 1300.64 101.678 1301.28 103.526C1301.92 105.374 1302.93 107.075 1304.24 108.53C1305.54 109.984 1307.13 111.163 1308.9 111.997C1316.87 116.356 1328.49 119.137 1342.77 122.706C1354.35 124.657 1365.97 127.397 1376.14 133.706C1388.8 141.136 1393.82 155.456 1391.87 169.485C1389.92 183.515 1381.12 197.254 1365.97 204.144C1358.5 207.423 1349.16 209.374 1339.49 210.204C1329.82 210.204 1319.9 210.204 1311.64 208.295C1277.98 200.574 1274.95 174.715 1274.95 161.225H1296.78V161.267ZM1433.75 140.887C1432.88 151.097 1433.46 159.316 1441.72 172.266C1448.03 180.775 1457.5 190.156 1474.27 190.156C1502.91 190.156 1509.55 168.157 1512.87 159.897H1536.28C1534.33 168.697 1532.13 178.617 1523.33 188.786C1512.58 203.106 1493.82 210.246 1474.51 210.246C1455.5 210.246 1435.91 202.816 1423.5 187.126C1413.87 174.757 1408.64 153.795 1408.89 132.668C1409.18 111.499 1414.95 90.2888 1426.86 77.0479C1433.36 69.4736 1441.57 63.5518 1450.81 59.7704C1460.04 55.989 1470.05 54.4561 1479.99 55.2979C1497.97 56.6677 1514.2 64.9277 1523 75.9687C1538.73 97.1376 1539.02 114.197 1539.31 140.887H1433.75V140.887ZM1514.24 120.506C1515.07 107.016 1507.35 90.7869 1503.78 86.9267C1500.75 80.6176 1490.25 75.3876 1478.66 74.2669C1467.42 73.1462 1454.72 76.5083 1446.99 86.9267C1443.38 90.2473 1435.12 105.937 1434.54 120.506H1514.24V120.506ZM1592.77 59.4487H1618.09V80.6176H1592.77V180.775C1592.77 189.865 1602.69 190.405 1615.68 188.205V208.585C1606.05 210.204 1599.7 211.076 1590.61 210.204C1585.24 209.912 1580.17 207.687 1576.31 203.94C1572.46 200.194 1570.09 195.18 1569.65 189.824V80.6176H1549.48V59.4487H1569.61V20.3901H1592.77V59.4487ZM1663.83 59.4487H1686.74V80.6176H1663.83V180.775C1663.83 189.865 1673.75 190.405 1686.74 188.205V208.585C1677.11 210.204 1670.76 211.076 1661.67 210.204C1656.31 209.903 1651.23 207.675 1647.38 203.931C1643.53 200.186 1641.16 195.177 1640.71 189.824V80.6176H1618.13V59.4487H1640.71V20.3901H1663.87V59.4487H1663.83ZM910.634 439.782L855.803 276.865V439.782H829.321V239.135H865.972L923.875 409.731L981.778 239.135H1018.43V439.782H991.947V276.865L937.116 439.782H910.634V439.782ZM1199.94 295.253H1223.14V313.682H1223.68C1227.05 308.162 1231.94 300.193 1238.34 296.913C1244.98 293.302 1254.36 291.144 1265.61 291.144C1274.45 291.144 1282.17 291.144 1289.6 296.623C1294.83 300.525 1299.23 303.762 1304.75 312.852C1310.81 305.464 1315.5 298.823 1324.34 295.004C1330.4 292.265 1339.2 291.144 1345.59 291.144C1355.47 290.853 1365.47 291.683 1372.36 295.544C1377.78 298.854 1382.31 303.448 1385.53 308.922C1388.75 314.395 1390.57 320.578 1390.83 326.923V439.782H1367.63V336.553C1364.6 317.543 1354.1 312.022 1339.78 312.022C1318.82 312.022 1308.94 326.882 1306.95 341.742V439.741H1283.79V335.972C1281.88 317.003 1268.64 312.022 1257.01 312.022C1238.83 312.022 1224.51 326.882 1223.14 346.681V439.741H1199.94V295.253V295.253ZM1474.18 291.144C1447.74 291.144 1408.85 304.053 1408.85 368.472C1408.85 432.851 1447.78 446.092 1474.18 446.092C1500.66 446.092 1539.56 432.851 1539.56 368.472C1539.56 304.053 1500.62 291.144 1474.18 291.144V291.144ZM1474.18 314.264C1504.81 314.264 1515.81 344.813 1515.81 368.472C1515.81 392.132 1504.81 422.93 1474.18 422.93C1443.88 422.93 1432.55 392.132 1432.55 368.472C1432.55 344.813 1443.84 314.264 1474.18 314.264ZM1560.14 295.253H1583.31V317.833H1583.89C1592.44 301.313 1606.18 291.974 1616.68 291.144H1629.63V315.343C1621.08 315.343 1613.9 316.463 1607.59 318.663C1591.32 326.135 1583.31 339.583 1583.31 364.654V439.782H1560.14V295.253ZM1764.65 295.253L1699.03 473.03C1697.41 478.044 1694.8 482.68 1691.35 486.659C1687.89 490.639 1683.67 493.881 1678.94 496.191C1672.96 498.881 1666.44 500.173 1659.89 499.968C1655.41 500.013 1651 498.79 1647.19 496.44V475.23C1653 477.43 1659.06 478.509 1664.29 477.43C1669.81 476.309 1674.46 472.449 1677.24 464.77L1685.83 441.899L1638.39 295.253H1662.92L1699.57 404.501L1739.87 295.253H1764.65V295.253ZM1718.16 140.887C1717.29 151.056 1717.87 159.316 1726.09 172.266C1732.44 180.775 1741.82 190.156 1758.63 190.156C1787.23 190.156 1793.91 168.157 1797.24 159.897H1820.65C1818.74 168.697 1816.49 178.575 1807.7 188.786C1796.94 203.106 1778.22 210.246 1758.88 210.246C1739.87 210.246 1720.32 202.816 1707.87 187.126C1698.24 174.757 1693.01 153.837 1693.26 132.668C1693.55 111.458 1699.32 90.2888 1711.19 77.0479C1717.69 69.4676 1725.91 63.5422 1735.15 59.7606C1744.4 55.9789 1754.41 54.4493 1764.36 55.2979C1782.33 56.6677 1798.56 64.9277 1807.36 75.9272C1823.09 97.1376 1823.34 114.197 1823.68 140.887H1718.16V140.887ZM1798.61 120.465C1799.44 107.016 1791.71 90.7869 1788.1 86.8852C1785.12 80.6176 1774.61 75.3461 1763.03 74.2669C1751.74 73.1462 1739 76.4668 1731.32 86.8852C1727.71 90.2473 1719.45 105.896 1718.87 120.465H1798.61ZM1068.49 376.732C1067.7 386.902 1068.24 395.162 1076.5 408.112C1082.81 416.621 1092.19 425.96 1109 425.96C1137.68 425.96 1144.32 403.961 1147.6 395.701H1171.01C1169.14 404.501 1166.9 414.421 1158.06 424.591C1147.31 438.911 1128.55 446.05 1109.25 446.05C1090.24 446.05 1070.65 438.62 1058.24 422.93C1048.61 410.561 1043.38 389.641 1043.58 368.472C1043.87 347.262 1049.64 326.093 1061.51 312.852C1077.25 295.253 1096.84 289.774 1114.73 291.144C1132.62 292.514 1148.93 300.774 1157.73 311.773C1173.46 332.983 1173.71 350.085 1174 376.732H1068.49V376.732ZM1149.05 356.352C1149.88 342.862 1142.12 326.633 1138.55 322.773C1135.52 316.505 1125.06 311.234 1113.48 310.154C1102.23 309.075 1089.49 312.354 1081.77 322.773C1078.2 326.135 1069.9 341.783 1069.36 356.352H1149.05ZM219.326 367.186C180.135 367.175 142.552 351.604 114.836 323.896C87.1205 296.188 71.5395 258.609 71.5175 219.419C71.5615 180.235 87.1495 142.669 114.861 114.966C142.572 87.2624 180.142 71.6849 219.326 71.6519C224.001 71.6792 228.635 70.7848 232.964 69.0198C237.293 67.2547 241.232 64.6537 244.555 61.3654C247.878 58.0771 250.52 54.166 252.33 49.8558C254.141 45.5457 255.084 40.9209 255.105 36.246C255.139 26.7775 251.426 17.68 244.778 10.9382C238.129 4.19643 229.084 0.357505 219.616 0.258933C190.805 0.226211 162.27 5.8693 135.64 16.8659C109.01 27.8625 84.8064 43.9973 64.4126 64.3487C44.0188 84.7001 27.8337 108.87 16.7817 135.477C5.7297 162.084 0.027239 190.608 0 219.419C0.0217901 248.234 5.72023 276.762 16.7698 303.374C27.8194 329.986 44.0036 354.16 64.398 374.516C84.7923 394.872 108.997 411.01 135.63 422.009C162.263 433.008 190.802 438.653 219.616 438.62C229.088 438.511 238.133 434.663 244.78 427.914C251.428 421.166 255.139 412.064 255.105 402.592C255.084 397.917 254.141 393.292 252.33 388.982C250.52 384.672 247.878 380.761 244.555 377.472C241.232 374.184 237.293 371.583 232.964 369.818C228.635 368.053 224.001 367.158 219.326 367.186V367.186ZM341.234 442.065C360.742 444.597 378.839 430.858 381.371 411.391L429.811 40.4798C430.434 35.8688 430.14 31.18 428.944 26.6833C427.748 22.1867 425.675 17.9709 422.843 14.2789C420.011 10.5868 416.477 7.49136 412.444 5.1707C408.411 2.85004 403.959 1.35003 399.344 0.757024C389.965 -0.458826 380.486 2.08382 372.974 7.83027C365.462 13.5767 360.528 22.0606 359.248 31.4311L310.726 402.384C310.119 406.993 310.428 411.677 311.634 416.167C312.839 420.657 314.918 424.865 317.752 428.55C320.585 432.236 324.118 435.327 328.147 437.646C332.176 439.965 336.623 441.467 341.234 442.065ZM515.026 302.102C524.398 303.306 533.867 300.758 541.369 295.012C548.871 289.267 553.8 280.79 555.08 271.428L585.173 40.5213C585.785 35.9088 585.481 31.2209 584.278 26.7263C583.076 22.2316 580.997 18.0185 578.163 14.3283C575.329 10.6382 571.795 7.54363 567.763 5.22193C563.73 2.90023 559.28 1.39705 554.665 0.798531C545.288 -0.406121 535.815 2.14081 528.306 7.88525C520.797 13.6297 515.86 22.1069 514.569 31.4726L484.518 262.421C483.9 267.032 484.201 271.719 485.402 276.213C486.603 280.708 488.681 284.92 491.517 288.608C494.352 292.296 497.889 295.387 501.923 297.703C505.958 300.019 510.411 301.514 515.026 302.102ZM651.959 442.065C661.34 443.292 670.825 440.754 678.339 435.006C685.854 429.257 690.785 420.767 692.055 411.391L740.495 40.4798C741.118 35.8688 740.824 31.18 739.628 26.6833C738.432 22.1867 736.359 17.9709 733.527 14.2789C730.695 10.5868 727.161 7.49136 723.128 5.1707C719.095 2.85004 714.643 1.35003 710.028 0.757024C700.644 -0.459414 691.16 2.08203 683.642 7.8276C676.124 13.5732 671.181 22.0572 669.89 31.4311L621.451 402.384C620.828 406.996 621.124 411.685 622.323 416.182C623.522 420.678 625.6 424.893 628.436 428.582C631.273 432.271 634.812 435.362 638.849 437.677C642.886 439.991 647.342 441.482 651.959 442.065V442.065Z" fill="black"/>
</svg>
