<svg width="2644" height="500" viewBox="0 0 2644 500" fill="none" xmlns="http://www.w3.org/2000/svg">
<path fill-rule="evenodd" clip-rule="evenodd" d="M354.829 387.094C354.829 387.094 486.056 387.094 486.056 260.996H597.488C597.488 260.996 618.758 500 354.829 500V387.094ZM354.092 143.682H241.201V257.325H117.299V141.501H19.7957V35.1835H354.092V143.682ZM417.885 217.75C431.814 240.463 433.273 278.595 415.689 300.602C401.76 319.645 379.769 332.13 355.581 332.13C327.708 333.604 303.52 320.382 288.132 296.194C275.677 278.595 275.677 247.067 284.462 226.534C294.72 203.821 318.923 185.484 343.111 181.814C373.165 179.618 401.745 190.614 417.885 217.75Z" fill="#E6E6E7"/>
<path fill-rule="evenodd" clip-rule="evenodd" d="M335.033 359.973C335.033 359.973 466.26 359.973 466.26 233.875H578.43C578.43 233.875 598.962 472.879 335.033 472.879V359.973V359.973ZM335.033 116.576H221.405V229.468H97.503V113.628H0V8.06256H335.033V116.576ZM398.812 190.614C412.741 213.342 413.478 251.474 395.878 272.714C381.949 291.787 360.695 304.979 336.492 304.979C307.912 306.453 283.709 293.261 269.043 269.073C255.851 251.474 255.851 219.946 264.651 199.413C274.925 175.963 299.112 158.363 323.3 154.693C354.091 151.76 381.949 163.493 398.812 190.614V190.614Z" fill="black"/>
<path d="M663.478 243.396H2636.31" stroke="black" stroke-width="10.9724" stroke-miterlimit="2.613"/>
<path fill-rule="evenodd" clip-rule="evenodd" d="M1364.33 108.514C1371.65 89.4404 1379 70.397 1387.05 51.3236C1395.13 70.397 1401.74 89.4404 1409.05 108.514H1364.33ZM1405.38 5.1293C1402.45 5.1293 1399.53 5.86642 1396.6 5.86642C1393.67 5.86642 1390.72 5.1293 1387.05 5.1293C1366.55 60.1082 1329.87 145.878 1318.14 173.014C1323.27 172.277 1326.2 171.54 1330.6 171.54C1334.28 171.54 1337.95 172.277 1341.59 173.014C1346.74 156.152 1351.88 139.29 1358.45 123.165C1366.53 123.165 1375.32 122.428 1383.39 122.428C1393.65 122.428 1403.9 123.165 1414.18 123.165C1420.77 139.29 1425.9 156.152 1431.05 173.014C1437.63 172.277 1444.98 171.54 1451.55 171.54C1458.15 171.54 1465.48 172.277 1472.82 173.014C1454.5 133.424 1426.65 60.1233 1405.38 5.1293V5.1293ZM1579.86 68.1859V21.2695C1587.2 20.5324 1593.05 19.7953 1604.8 19.7953C1638.52 19.7953 1660.5 44.7201 1660.5 84.311C1660.5 134.161 1637.79 159.085 1601.13 159.085C1591.58 159.085 1585 158.348 1579.86 158.348V68.1859ZM1543.95 105.566C1543.95 132.702 1543.22 151.76 1541.76 173.014C1546.87 172.277 1553.47 171.54 1561.52 171.54C1574.01 171.54 1590.87 173.014 1615.06 173.014C1660.5 173.014 1698.65 137.816 1698.65 85.0331C1698.65 24.1877 1660.51 5.85138 1605.55 5.85138C1584.28 5.85138 1572.56 7.31047 1561.54 7.31047C1554.92 7.29764 1548.32 6.81002 1541.77 5.85138C1543.25 27.843 1543.97 46.1792 1543.97 73.3001V105.566H1543.95V105.566ZM1880.44 5.86642C1883.38 6.58844 1887.05 7.3255 1890.73 7.3255C1894.37 7.3255 1898.04 6.58844 1901.71 5.86642C1885.59 43.9831 1854.06 117.298 1834.99 173.014C1831.32 172.277 1828.4 171.54 1824.73 171.54C1821.06 171.54 1817.39 172.277 1813.75 173.014C1799.05 131.227 1763.9 43.2461 1748.5 5.86642C1755.81 6.58844 1763.16 7.3255 1770.47 7.3255C1777.08 7.3255 1784.4 6.58844 1791.74 5.86642C1802 42.5241 1819.6 87.2442 1834.25 127.557C1851.11 87.2442 1867.25 43.2611 1880.44 5.86642ZM1972.8 73.3153C1972.8 46.1943 1972.8 27.1209 1971.36 5.86642C1976.47 6.58844 1983.08 7.3255 1991.12 7.3255C1997.75 7.31256 2004.36 6.82495 2010.92 5.86642C2009.35 28.3144 2008.62 50.8129 2008.72 73.3153V105.566C2008.72 132.702 2009.46 151.76 2010.92 173.014C2004.37 172.043 1997.75 171.55 1991.12 171.54C1983.08 171.54 1976.46 172.277 1971.36 173.014C1972.8 151.745 1972.8 132.686 1972.8 105.566V73.3153ZM2170.04 38.8688C2164.89 24.9398 2155.37 18.3363 2140.72 18.3363C2126.07 18.3363 2115.78 27.873 2115.78 39.6058C2115.78 75.5264 2189.11 66.7268 2189.11 121.706C2189.11 153.971 2163.43 175.963 2124.59 175.963C2107.73 175.963 2093.06 170.833 2085.72 165.689C2088.66 154.693 2090.87 145.893 2093.07 134.898H2097.47C2100.38 148.827 2111.4 161.282 2131.17 161.282C2149.5 161.282 2159.05 149.564 2159.05 136.357C2159.05 99.6991 2087.2 109.221 2087.2 54.9789C2087.2 21.2545 2112.88 2.93321 2141.46 2.93321C2159.05 2.93321 2172.25 7.32549 2181.03 14.666C2178.13 22.7286 2176.65 27.858 2173.72 38.8538H2170.04V38.8688V38.8688ZM2395.83 144.419C2393.64 151.76 2391.43 158.348 2390.69 164.952C2378.23 172.292 2361.37 175.948 2341.56 175.948C2285.12 175.948 2252.14 140.764 2252.14 95.3068C2252.14 28.595 2297.58 2.93321 2348.18 2.93321C2365.04 2.93321 2386.28 8.06255 2397.31 14.666C2394.37 22.7286 2392.9 31.5282 2392.16 39.5908H2388.49C2376.77 24.9247 2364.32 18.3212 2346.72 18.3212C2321.04 18.3212 2291.73 40.3128 2291.73 91.6365C2291.73 141.486 2321.04 161.282 2348.93 161.282C2364.32 161.282 2382.66 153.956 2392.91 142.96L2395.83 144.419V144.419ZM2604.05 84.311C2604.05 137.094 2579.11 161.282 2549.79 161.282C2522.67 161.282 2499.2 142.96 2499.2 91.6365C2499.2 49.8495 2518.28 16.8621 2551.26 16.8621C2582.78 16.8621 2604.05 42.524 2604.05 84.311ZM2459.63 89.4404C2459.63 149.564 2500.68 175.948 2551.26 175.948C2605.49 175.948 2643.64 137.094 2643.64 89.4404C2643.64 30.7912 2603.32 2.93321 2552 2.93321C2496.25 2.93321 2459.63 41.787 2459.63 89.4404ZM684.732 42.524C684.732 33.7244 684.732 24.9397 683.995 21.2695C674.473 21.2695 653.941 22.7436 640.012 24.9398C640.749 21.2695 640.749 17.5992 640.749 13.944C640.749 10.2737 640.749 6.60348 640.012 2.94824C662.003 3.68531 672.262 4.42236 702.331 4.42236C732.385 4.42236 743.381 3.68531 763.914 2.94824C763.177 6.61852 762.44 10.2737 762.44 13.944C762.44 17.5992 763.177 21.2695 763.914 24.9398C749.597 22.7483 735.149 21.5221 720.668 21.2695V103.369C720.668 129.753 720.668 148.827 722.142 170.081C717.012 169.344 710.409 168.607 702.346 168.607C694.284 168.607 688.417 169.344 682.551 170.081C684.01 148.827 684.747 129.753 684.747 103.369V42.524H684.732ZM812.289 133.423C814.892 133.412 817.471 133.915 819.879 134.906C822.286 135.897 824.473 137.354 826.313 139.195C828.154 141.035 829.611 143.222 830.602 145.629C831.593 148.037 832.096 150.616 832.085 153.219C832.085 164.215 823.285 173.014 812.289 173.014C801.293 173.014 792.494 164.215 792.494 153.219C792.482 150.616 792.986 148.037 793.976 145.629C794.967 143.222 796.424 141.035 798.265 139.195C800.106 137.354 802.293 135.897 804.7 134.906C807.107 133.915 809.686 133.412 812.289 133.423V133.423ZM1030.02 81.3778C1030.02 134.161 1004.36 157.626 975.767 157.626C948.646 157.626 925.195 140.042 925.195 88.7183C925.195 46.9313 944.254 13.944 977.241 13.944C1008.77 13.9289 1030.02 39.5908 1030.02 81.3778ZM885.604 86.5072C885.604 146.631 926.654 173.014 977.241 173.014C1031.48 173.014 1069.61 134.161 1069.61 86.5072C1069.61 27.858 1029.29 0 977.978 0C922.262 0 885.604 38.8688 885.604 86.5072ZM1143.67 133.423C1146.27 133.412 1148.85 133.915 1151.26 134.906C1153.66 135.897 1155.85 137.354 1157.69 139.195C1159.53 141.035 1160.99 143.222 1161.98 145.629C1162.97 148.037 1163.47 150.616 1163.46 153.219C1163.47 155.822 1162.97 158.401 1161.98 160.808C1160.99 163.215 1159.53 165.403 1157.69 167.243C1155.85 169.084 1153.66 170.541 1151.26 171.532C1148.85 172.522 1146.27 173.026 1143.67 173.014C1141.06 173.026 1138.48 172.522 1136.08 171.532C1133.67 170.541 1131.48 169.084 1129.64 167.243C1127.8 165.403 1126.34 163.215 1125.35 160.808C1124.36 158.401 1123.86 155.822 1123.87 153.219C1123.86 150.616 1124.36 148.037 1125.35 145.629C1126.34 143.222 1127.8 141.035 1129.64 139.195C1131.48 137.354 1133.67 135.897 1136.08 134.906C1138.48 133.915 1141.06 133.412 1143.67 133.423V133.423ZM686.928 365.117V307.912H665.674V300.602H717.719V307.912H696.465V365.117H686.928V365.117ZM768.306 307.912H782.235C785.89 307.912 795.427 307.912 795.427 318.171C795.427 324.052 792.494 326.248 791.035 326.986C788.838 328.46 783.694 328.46 782.235 328.46H768.306V307.912ZM759.506 365.117H769.043V335.77H780.039C791.035 335.77 793.231 338.703 793.968 347.518C794.705 352.632 795.442 360.71 796.901 365.117H806.423C804.227 357.777 803.489 351.895 802.752 344.585C801.293 336.507 799.082 333.604 792.479 332.13C794.675 331.393 797.623 330.656 800.556 328.46C802.752 325.526 804.949 321.119 804.949 316.742C804.949 311.597 802.752 306.453 797.623 303.52C793.216 300.617 785.89 300.617 782.957 300.617H759.491V365.117H759.506V365.117ZM851.88 300.602H892.945V307.912H861.417V328.445H890.734V335.755H861.417V357.025H893.682V365.117H851.88V300.602ZM950.857 300.602V340.177C950.857 347.518 952.316 349.699 953.79 351.895C957.461 357.04 964.049 358.499 968.456 358.499C986.056 358.499 986.056 344.57 986.056 340.162V300.587H994.855V340.162C994.855 343.833 994.118 351.143 988.989 357.025C983.122 365.102 972.864 365.809 968.456 365.809C962.59 365.809 951.594 364.365 945.728 355.55C943.532 353.354 942.057 348.947 942.057 339.425V300.587H950.857V300.602V300.602ZM1053.49 300.602V328.445H1084.28V300.602H1093.08V365.117H1084.28V335.755H1053.49V365.117H1044.69V300.602H1053.49ZM1167.12 309.386L1178.85 340.914H1154.66L1167.12 309.386ZM1135.6 365.117H1145.14L1151.73 348.255H1181.78L1189.12 365.117H1198.65L1172.26 300.602H1162.74L1135.6 365.117ZM1241.89 300.602H1254.36L1285.89 353.354V300.602H1293.95V365.117H1282.22L1249.97 310.108V365.117H1241.89V300.602V300.602ZM1353.35 307.912H1363.61C1371.66 307.912 1376.8 308.649 1381.21 313.794C1387.06 320.382 1387.06 331.393 1387.06 333.589C1387.06 337.229 1387.06 347.518 1379.02 354.091C1374.61 357.025 1368.04 357.762 1362.15 357.762H1353.37V307.912H1353.35ZM1344.54 365.117H1362.14C1371.66 365.117 1379.74 365.117 1386.31 359.973C1390.72 355.566 1396.6 347.518 1396.6 333.589C1396.6 324.037 1394.4 315.253 1388.52 308.649C1381.93 300.602 1371.66 300.602 1362.88 300.602H1344.54V365.117ZM1629.72 318.171C1628.99 312.319 1623.84 307.912 1615.06 307.912C1609.18 307.912 1604.08 309.386 1600.39 313.056C1595.25 319.645 1593.79 327.723 1593.79 334.326C1593.79 339.44 1594.52 348.255 1599.67 354.091C1604.08 359.236 1609.93 360.695 1616.53 360.695C1623.84 360.695 1628.99 359.221 1630.46 358.499V339.425H1615.79V332.115H1639.27V363.643C1635.6 365.117 1627.53 367.283 1616.53 367.283C1604.81 367.283 1598.19 364.38 1593.05 359.973C1587.2 353.369 1584.27 344.585 1584.27 335.033C1584.27 328.445 1585.74 313.794 1598.19 305.716C1604.8 301.309 1612.86 300.602 1615.79 300.602C1620.94 300.602 1628.99 301.309 1634.87 307.912C1639.27 311.582 1639.27 315.253 1639.27 318.171H1629.72V318.171ZM1688.36 302.031H1728.7V309.386H1697.17V329.919H1727.23V337.229H1697.17V358.499H1729.44V366.546H1688.36V302.031ZM1783.66 347.518C1784.4 351.895 1784.4 359.973 1799.05 359.973C1813.01 359.973 1814.44 351.895 1814.44 348.962C1814.44 341.652 1808.59 340.177 1799.77 337.981C1789.52 335.785 1785.11 334.341 1782.2 332.13C1777.06 328.46 1775.6 324.052 1775.6 319.645C1775.6 306.453 1788.06 300.602 1799.77 300.602C1804.18 300.602 1813 301.309 1818.11 307.19C1821.78 310.86 1821.78 315.268 1821.78 318.171H1813C1812.26 310.123 1805.66 307.912 1799.04 307.912C1790.25 307.912 1785.11 312.319 1785.11 318.893C1785.11 324.037 1788.78 326.233 1796.86 328.445C1811.52 332.115 1813.72 332.115 1817.36 335.033C1823.24 338.703 1823.96 345.322 1823.96 347.518C1823.96 359.236 1814.41 368.02 1798.28 368.02C1793.17 368.02 1783.62 367.283 1778.52 360.71C1774.85 355.565 1774.85 350.421 1774.85 347.518H1783.66V347.518ZM1869.45 302.031H1909.76V309.386H1878.23V329.919H1908.32V337.229H1878.23V358.499H1910.5V366.546H1869.45V302.031ZM1959.61 302.031H1968.43V358.499H1998.48V366.546H1959.61V302.031ZM2043.2 302.031H2051.99V358.499H2081.33V366.546H2043.2V302.031ZM2131.89 347.518C2132.63 351.895 2132.63 359.973 2148.01 359.973C2161.24 359.973 2162.68 351.895 2162.68 348.962C2162.68 341.652 2156.83 340.177 2148.01 337.981C2138.49 335.785 2134.08 334.341 2130.41 332.13C2125.3 328.46 2123.83 324.052 2123.83 319.645C2123.83 306.453 2136.28 300.602 2148 300.602C2152.41 300.602 2161.22 301.309 2166.34 307.19C2170.01 310.86 2170.01 315.268 2170.01 318.171H2161.22C2160.48 310.123 2153.88 307.912 2147.29 307.912C2138.48 307.912 2133.33 312.319 2133.33 318.893C2133.33 324.037 2137 326.233 2145.08 328.445C2160.47 332.115 2161.91 332.115 2165.58 335.033C2171.46 338.703 2172.19 345.322 2172.19 347.518C2172.19 359.236 2163.37 368.02 2146.54 368.02C2141.4 368.02 2131.84 367.283 2126.74 360.71C2123.07 355.565 2123.07 350.421 2123.07 347.518H2131.89V347.518ZM2257.99 319.63C2257.25 317.434 2256.54 307.912 2244.06 307.912C2228.67 307.912 2225.75 324.037 2225.75 335.033C2225.75 346.781 2229.39 359.973 2244.06 359.973C2247.73 359.973 2251.4 359.236 2254.35 356.303C2256.54 353.369 2257.25 351.158 2257.25 349.699H2267.54C2266.06 362.184 2254.35 367.298 2243.34 367.298C2220.62 367.298 2216.21 347.533 2216.21 335.033C2216.21 321.104 2221.36 301.309 2244.07 301.309C2253.62 301.309 2266.08 304.979 2267.55 319.645H2257.99V319.63V319.63ZM2321.04 302.031V329.919H2351.85V302.031H2360.63V366.546H2351.85V337.229H2321.04V366.546H2312.26V302.031H2321.04ZM2434.67 310.845L2447.13 342.374H2422.22L2434.67 310.845ZM2403.88 366.546H2412.69L2420.01 349.684H2449.32L2456.66 366.546H2466.18L2439.8 302.031H2430.28L2403.88 366.546V366.546ZM2509.48 302.031H2547.58V309.386H2518.26V329.919H2546.12V337.229H2518.26V366.546H2509.48V302.031V302.031ZM2607.69 366.546V309.386H2586.45V302.031H2637.77V309.386H2616.5V366.546H2607.69ZM1492.63 318.171C1480.91 318.171 1471.36 327.723 1471.36 340.177C1471.36 351.895 1480.91 361.447 1492.63 361.447C1504.35 361.447 1513.87 351.895 1513.87 340.177C1513.87 327.708 1504.36 318.171 1492.63 318.171Z" fill="#0C0E0F"/>
</svg>
