<svg width="2516" height="500" viewBox="0 0 2516 500" fill="none" xmlns="http://www.w3.org/2000/svg">
<path fill-rule="evenodd" clip-rule="evenodd" d="M410.895 500C439.092 500 487.414 472.075 509.958 447.914C532.516 423.753 555.059 397.172 555.059 364.151C555.059 247.354 325.515 261.052 325.515 211.127C325.515 173.268 506.737 78.2413 698.408 70.9844C706.452 70.6838 715.112 80.1879 698.809 82.2633C679.872 84.6823 637.991 97.5644 621.087 116.086C604.183 134.608 610.624 170.047 638.006 170.047C665.387 170.047 748.577 128.997 759.627 120.924C792.648 96.7628 811.971 83.8808 811.971 37.9634C811.971 -3.9176 729.826 0.104412 690.364 0.104412C650.902 0.104412 265.113 66.948 265.113 215.951C265.113 329.513 502.701 315.815 502.701 373.799C502.701 414.893 407.66 439.054 389.138 439.054H0V500H410.895V500ZM2144.1 444.693C2096.86 444.693 2096.86 438.238 2096.86 424.282C2096.86 410.298 2111.9 387.769 2143.02 349.108C2161.94 325.62 2197.87 279.588 2233.06 237.664C2298.59 235.818 2372.65 235.274 2387.85 235.274C2409.35 235.274 2413.63 217.024 2413.63 208.436C2413.63 199.834 2409.35 181.598 2341.7 181.598C2310.41 181.598 2293.11 180.94 2283.83 180.367C2287.91 176.145 2291.86 172.209 2295.51 168.716C2339.54 126.835 2339.54 121.468 2339.54 104.292C2339.54 87.1156 2326.66 76.3663 2311.61 76.3663C2305.63 76.3663 2266.77 109.917 2204.94 178.034C2180.36 179.423 2143.52 181.799 2135.52 182.686C2125.84 183.76 2114.02 188.054 2106.5 197.715C2099.02 207.377 2096.86 214.906 2096.86 220.273C2096.86 225.312 2094.95 242.631 2149.69 241.214C2062.22 344.914 2051.73 383.918 2051.73 411.429C2051.73 439.354 2075.37 496.278 2167.72 496.278H2515.58V444.722C2416.65 444.693 2181.26 444.693 2144.1 444.693V444.693Z" fill="black"/>
<path fill-rule="evenodd" clip-rule="evenodd" d="M2009.6 203.884C1973.35 224.825 1878.32 290.867 1830.8 324.69C1783.28 358.512 1714.8 409.253 1669.72 409.253C1655.23 409.253 1640.73 404.415 1640.73 393.151C1640.71 392.057 1640.67 390.964 1640.59 389.873C1658.39 382.745 1709.98 360.96 1742.21 335.94C1781.69 305.352 1809.06 280.39 1809.06 243.332C1809.06 206.289 1772.83 200.65 1751.07 200.65C1729.32 200.65 1597.23 239.31 1571.45 366.556C1571.45 366.556 1500.59 415.709 1458.71 415.709C1444.22 415.709 1436.18 409.253 1436.18 400.393C1436.18 391.562 1444.98 342.81 1576.32 223.866C1616.77 221.461 1654.54 218.484 1667.31 217.568C1689.84 215.951 1705.17 186.966 1705.17 175.687C1705.17 164.422 1693.09 154.761 1666.51 154.761H1643.28C1653.51 143.997 1667.54 127.379 1676.66 118.147C1690.24 104.392 1666.51 77.4398 1639.93 77.4398C1630.28 77.4398 1621.42 83.0793 1612.56 92.7409C1608.51 97.1637 1580.64 125.748 1548.21 158.583C1529.82 159.398 1506.73 160.386 1496.58 160.386C1483.7 160.386 1459.54 168.445 1451.49 179.723C1443.45 191.002 1432.14 206.303 1432.14 212.744C1432.14 218.828 1432.9 226.356 1479.89 227.158C1465.75 241.171 1453.67 252.951 1445.84 260.251C1410.39 293.272 1287.19 402.826 1242.09 402.826C1213.91 402.826 1211.49 383.475 1211.49 365.755C1211.49 360.33 1212.22 354.404 1213.52 348.149C1246.7 328.11 1360.86 257.345 1421.69 195.84C1493.37 123.357 1505.45 99.1962 1505.45 75.0352C1505.45 50.8742 1502.23 23.4927 1473.25 23.4927C1444.27 23.4927 1369.33 61.3516 1312.17 108.056C1254.97 154.775 1197.63 213.26 1159.14 322.299C1154.3 335.969 1064.1 405.245 1030.28 405.245C1020.62 405.245 1019 398.819 1019 389.959C1019 381.099 1033.28 349.065 1094.72 279.617C1113.24 258.676 1112.44 253.037 1112.44 242.559C1112.44 232.096 1101.16 219.2 1088.28 219.2C1054.45 219.2 1084.24 202.281 1023.85 202.281C981.971 202.281 923.172 227.258 886.129 258.662C849.085 290.051 829.762 318.263 799.146 339.991C768.544 361.747 699.267 407.65 661.422 407.65C623.563 407.65 628.401 381.9 628.401 381.9C628.401 381.9 813.631 332.748 813.631 237.721C813.631 219.2 808.807 199.862 770.133 199.862C696.848 199.862 572.808 270.742 572.808 366.571C572.808 453.567 627.571 476.913 660.592 476.913C693.613 476.913 739.516 459.994 799.919 402.025C799.919 402.025 800.72 470.457 857.101 470.457C913.467 470.457 958.583 403.614 958.583 403.614C958.583 403.614 968.244 467.237 1018.99 467.237C1059.64 467.237 1094.6 448.644 1154.1 397.759C1154.1 397.759 1167.19 468.038 1232.41 468.038C1297.64 468.038 1341.14 427.789 1369.32 399.577C1369.32 399.577 1374.97 476.898 1457.13 476.898C1517.52 476.898 1579.56 423.753 1579.56 423.753C1579.56 423.753 1595.66 480.92 1668.14 480.92C1740.6 480.92 1825.98 402.812 1825.98 402.812L1830.53 399.463C1828.45 418.585 1829.12 469.656 1895.24 469.656C1951.6 469.656 1980.62 435.833 2003.96 391.519C2027.34 347.233 2061.95 265.89 2061.95 241.729C2061.95 217.568 2045.84 182.944 2009.6 203.884V203.884Z" fill="black"/>
<path fill-rule="evenodd" clip-rule="evenodd" d="M1338.72 164.422C1407.97 102.402 1436.95 96.7628 1436.95 96.7628C1436.95 96.7628 1345.06 207.735 1255.31 260.165C1279.15 225.002 1307.16 192.854 1338.72 164.422V164.422ZM1734.97 267.522C1734.97 267.522 1721.8 295.92 1655.43 324.332C1668.37 303.334 1692 282.05 1734.97 267.522ZM1984.64 309.388C1974.96 325.491 1933.9 399.577 1904.1 399.577C1878.99 399.577 1877.32 385.879 1877.4 364.71C1920.7 332.59 1977.18 290.409 1987.86 281.177C2005.58 265.89 1994.29 293.257 1984.64 309.388ZM648.497 324.689C648.497 324.689 677.496 268.309 747.56 254.625C747.546 254.625 713.723 294.073 648.497 324.689ZM1029.43 257.846C1029.43 257.846 1009.31 251.391 930.371 312.609C885.298 347.577 869.969 369.777 869.969 378.637C869.969 387.497 865.947 397.988 891.711 380.254C917.489 362.534 994.008 307.771 1029.43 257.846V257.846Z" fill="white"/>
<path fill-rule="evenodd" clip-rule="evenodd" d="M2353.02 339.447C2353.02 317.862 2370.53 301.96 2391.21 301.96C2411.68 301.96 2429.17 317.862 2429.17 339.447C2429.17 361.217 2411.66 377.134 2391.21 377.134C2370.51 377.134 2353.02 361.217 2353.02 339.447Z" fill="black"/>
<path fill-rule="evenodd" clip-rule="evenodd" d="M2391.2 370.864C2408.2 370.864 2421.61 357.524 2421.61 339.447C2421.61 321.669 2408.19 308.215 2391.2 308.215C2373.98 308.215 2360.55 321.655 2360.55 339.447C2360.57 357.539 2373.98 370.864 2391.2 370.864Z" fill="white"/>
<path fill-rule="evenodd" clip-rule="evenodd" d="M2383.24 361.217H2376.7V317.862H2393.19C2403.42 317.862 2408.5 321.669 2408.5 330.186C2408.5 337.958 2403.61 341.336 2397.27 342.123L2409.59 361.217H2402.23L2390.77 342.438H2383.22V361.217H2383.24V361.217Z" fill="black"/>
<path fill-rule="evenodd" clip-rule="evenodd" d="M2391.1 336.87C2396.66 336.87 2401.63 336.455 2401.63 329.799C2401.63 324.432 2396.77 323.459 2392.18 323.459H2383.24V336.885H2391.1V336.87Z" fill="white"/>
</svg>
