<svg width="3049" height="500" viewBox="0 0 3049 500" fill="none" xmlns="http://www.w3.org/2000/svg">
<path fill-rule="evenodd" clip-rule="evenodd" d="M962.017 337.906V377.571C962.017 458.601 989.593 500 1043.05 500C1101.67 500 1129.24 462.052 1129.24 381.04V0H1087.86V343.092C1087.86 418.936 1084.41 455.149 1044.76 455.149C1017.17 455.149 1003.38 431.024 1003.38 386.174V337.906H962.017V337.906ZM1199.94 489.628H1244.75V422.387H1199.94V489.628ZM1317.18 489.628H1356.83V272.399H1410.28C1465.45 272.399 1484.41 291.373 1487.86 360.332C1493.03 422.387 1489.58 465.503 1499.93 489.628H1551.65C1530.96 467.238 1534.39 417.201 1529.24 343.092C1525.79 279.302 1506.83 249.991 1465.45 244.823C1512 229.3 1534.41 191.37 1534.41 125.863C1534.41 41.382 1496.48 0 1420.62 0H1317.18V489.628V489.628ZM1356.83 224.132V48.2674H1415.45C1467.17 48.2674 1491.31 72.4098 1491.31 134.483C1491.31 196.538 1463.73 224.132 1406.83 224.132H1356.83ZM1601.65 489.628H1644.73V422.387H1601.65V489.628ZM1891.27 489.628H1936.12L2001.63 89.6494L2067.14 489.628H2111.95L2189.53 0H2149.9L2089.53 410.333L2025.75 0H1979.2L1913.7 413.785L1855.06 0H1813.69L1891.27 489.628V489.628ZM2229.2 489.628H2270.56V251.726H2408.49V489.628H2451.58V0H2408.49V201.724H2270.56V0H2229.2V489.628ZM2517.1 489.628H2558.48V0H2517.1V489.628ZM2692.96 489.628H2736.06V50.0018H2824V0H2598.13V50.0018H2692.96V489.628ZM2863.63 489.628H3048.11V437.91H2905.03V258.611H3037.77V208.627H2905.03V51.7361H3046.38V0H2863.63V489.628Z" fill="#0C0E0F"/>
<path fill-rule="evenodd" clip-rule="evenodd" d="M381.023 0C581.012 0 762.028 96.5522 762.028 234.469C762.028 374.12 580.995 468.938 381.023 468.938C181.033 468.938 0 374.12 0 234.469C0 96.5522 181.016 0 381.023 0V0Z" fill="white"/>
<path fill-rule="evenodd" clip-rule="evenodd" d="M601.686 362.066C613.757 356.88 670.644 324.118 674.095 315.516C677.547 306.879 675.83 296.542 675.83 286.222C667.21 291.373 658.59 294.825 649.97 300.011C653.404 282.771 655.139 263.797 655.139 246.557L680.998 243.106L682.733 234.469L680.998 208.609L655.139 206.875L651.687 172.396L677.547 181.016C677.547 170.679 675.813 160.325 675.813 149.988C651.67 136.2 627.545 125.846 601.686 113.792C603.42 156.891 606.854 198.273 606.854 239.637C606.871 281.037 603.42 320.667 601.686 362.066V362.066ZM508.602 394.828C527.559 389.642 544.799 384.457 562.038 379.306C562.038 301.728 565.49 225.866 562.038 148.271L587.898 155.157L586.181 108.606C551.701 94.8179 517.222 84.4637 479.292 74.1269L481.009 131.031L508.602 136.2C510.319 222.415 508.602 308.613 508.602 394.828V394.828ZM413.767 408.599L465.486 403.413V241.372C465.486 184.484 465.486 127.58 463.769 70.6929C446.529 67.2415 429.29 65.5245 412.05 62.0731L413.767 408.599ZM274.134 398.28C291.373 401.696 308.613 405.148 325.852 406.882C324.135 351.729 322.401 298.276 322.401 244.823H337.924C337.924 300.011 339.658 353.429 341.375 408.599C351.729 408.599 363.783 410.334 374.137 410.334L391.377 408.599L389.642 60.3387H372.403C360.332 60.3387 349.995 62.0557 339.641 62.0557C339.641 101.721 337.906 143.085 337.906 182.733H322.384C324.118 143.085 324.118 103.42 324.118 63.7728C306.878 65.4898 291.356 68.9412 274.116 72.3926C274.116 125.846 270.665 177.547 270.665 229.266C270.682 286.222 274.134 341.358 274.134 398.28V398.28ZM158.608 360.332C160.342 306.879 160.342 253.443 165.51 199.99C167.245 256.877 177.582 312.047 182.75 368.934C199.99 375.837 217.229 382.757 236.203 387.908C243.089 282.771 255.16 179.316 265.514 75.8612C249.991 79.3126 234.469 84.4811 218.964 89.6495C215.512 149.988 205.175 210.327 201.724 272.399C196.556 213.795 196.556 156.891 194.839 100.004C189.67 101.738 150.023 117.243 150.023 118.978C144.854 127.597 129.332 248.292 129.332 263.797C125.88 227.584 125.88 191.387 125.88 155.174V132.766C110.358 139.651 94.8351 150.005 79.3298 158.625C82.7812 186.202 94.8524 317.25 106.906 334.49C108.623 337.906 151.705 356.88 158.608 360.332V360.332Z" fill="#0C0E0F"/>
<path fill-rule="evenodd" clip-rule="evenodd" d="M381.023 0C581.012 0 762.028 96.5522 762.028 234.469C762.028 374.12 580.995 468.938 381.023 468.938C181.033 468.938 0 374.12 0 234.469C0 96.5522 181.016 0 381.023 0V0ZM381.023 43.1163C182.75 43.1163 41.3819 137.934 41.3819 234.486C41.3819 332.773 182.75 427.59 381.023 427.59C579.278 427.59 720.663 332.773 720.663 234.486C720.646 137.934 579.278 43.1163 381.023 43.1163Z" fill="#0C0E0F"/>
</svg>
