<svg width="2527" height="500" viewBox="0 0 2527 500" fill="none" xmlns="http://www.w3.org/2000/svg">
<path fill-rule="evenodd" clip-rule="evenodd" d="M0 0.0914307H495.074V496.507H0V0.0914307Z" fill="black"/>
<path fill-rule="evenodd" clip-rule="evenodd" d="M21.2285 21.3054H473.143V475.278H21.2285V21.3054Z" fill="white"/>
<path fill-rule="evenodd" clip-rule="evenodd" d="M443.71 54.1712L419.064 92.5272L349.901 204.133L323.883 246.592L325.241 251.38L406.055 382.843L443.71 445.844V452.006H220.482L152.692 341.772L95.166 250.008V245.219L179.397 110.325L221.855 43.2211H445.768L443.71 54.1712V54.1712Z" fill="black"/>
<path fill-rule="evenodd" clip-rule="evenodd" d="M840.46 0H876.422V31.4931H840.46V0ZM1766.66 180.692C1746.19 180.692 1730.41 174.592 1719.32 162.346C1708.2 150.13 1702.64 132.698 1702.64 110.066C1702.64 89.1871 1708.3 72.8687 1719.61 61.0798C1730.9 49.3061 1746.58 43.3888 1766.62 43.3888C1787.17 43.3888 1802.99 49.4128 1814.09 61.4458C1825.18 73.494 1830.75 90.636 1830.75 112.856C1830.9 115.434 1830.68 118.027 1830.12 120.665H1738.31C1739.12 130.975 1741.5 138.676 1745.4 143.785C1750.37 150.175 1758.69 153.363 1770.31 153.363C1775.71 153.363 1780.71 151.883 1785.28 148.925C1789.9 145.966 1792.66 142.382 1793.56 138.219H1829.54C1826.48 151.517 1819.41 161.903 1808.3 169.422C1797.18 176.941 1783.35 180.692 1766.66 180.692V180.692ZM1480.92 180.692C1463.76 180.692 1449.92 174.226 1439.39 161.278C1428.89 148.315 1423.64 131.249 1423.64 110.081C1423.64 90.0869 1428.89 73.982 1439.33 61.7661C1449.82 49.5196 1463.58 43.404 1480.68 43.404C1495.93 43.404 1508.2 49.6416 1517.55 62.1321L1519.02 64.0384V0.899802H1554.4V177.444H1520.15V160.668L1519.52 161.507C1509.71 174.287 1496.83 180.692 1480.92 180.692ZM1280.43 180.692C1267.99 180.692 1257.95 177.23 1250.37 170.322C1242.78 163.398 1239 154.293 1239 143.023C1239 131.112 1242.41 121.58 1249.26 114.427C1256.09 107.275 1266.07 102.776 1279.18 100.93L1302.53 97.8039C1308.63 97.0108 1313.7 95.6383 1317.75 93.7319C1319.57 92.8278 1321 91.3014 1321.78 89.4311C1322.69 87.4447 1323.05 85.2462 1322.82 83.0715C1322.58 81.2812 1321.93 79.5697 1320.93 78.0719C1319.92 76.574 1318.58 75.3306 1317 74.4395C1312.95 71.9689 1307.15 70.7336 1299.57 70.7336C1292.8 70.7336 1287.51 72.3349 1283.7 75.5529C1279.9 78.7555 1277.89 83.3003 1277.63 89.1566H1243.74C1244.49 73.86 1249.84 62.4218 1259.8 54.8117C1269.76 47.2015 1284.38 43.3888 1303.64 43.3888C1320.38 43.3888 1333.6 46.8202 1343.31 53.6526C1353 60.5002 1357.85 69.849 1357.85 81.6837V154.674C1357.85 160.5 1358.35 164.618 1359.34 166.967C1360.32 169.33 1362.31 171.191 1365.27 172.548V177.444H1326.81V177.139C1325.32 172.113 1324.33 166.954 1323.84 161.736L1323.72 161.492C1312.6 174.287 1298.17 180.692 1280.43 180.692V180.692ZM945.341 180.692C928.184 180.692 914.336 174.226 903.828 161.278C893.305 148.315 888.043 131.249 888.043 110.081C888.043 90.0869 893.289 73.982 903.767 61.7661C914.244 49.5196 928.016 43.404 945.097 43.404C960.348 43.404 972.64 49.6416 981.958 62.1321L983.437 64.0384V0.899802H1018.8V177.444H984.551V160.668L983.941 161.507C974.134 174.287 961.247 180.692 945.341 180.692ZM706.832 177.429H671.466V0.594785H711.148L784.398 124.767V0.594785H819.765V177.429H782.05L706.832 49.8856V177.429V177.429ZM1840 46.6677H1873.63V70.0625C1874.85 67.5156 1876.25 65.0602 1877.83 62.6964C1886.17 49.8246 1896.92 43.3888 1910.11 43.3888L1918.15 43.5107V78.6488C1914.61 78.3074 1911.05 78.1445 1907.49 78.1607C1896.71 78.1607 1888.64 80.7382 1883.33 85.9082C1877.99 91.0782 1875.35 98.9172 1875.35 109.425V177.429H1840V46.6677V46.6677ZM1793.91 98.6579C1793.05 90.8342 1790.91 84.7491 1787.45 80.3416C1782.86 74.531 1775.77 71.6029 1766.16 71.6029C1756.95 71.6029 1749.96 75.0038 1745.16 81.7752C1742.18 86.076 1740 91.7035 1738.69 98.6427H1793.91V98.6579V98.6579ZM1572.21 46.6677H1605.84V66.1888C1607.24 63.8859 1608.78 61.6745 1610.43 59.5852C1619.19 48.7876 1631.9 43.3888 1648.59 43.3888C1662.8 43.3888 1673.94 47.4912 1681.97 55.6352C1690.04 63.7944 1694.07 75.1106 1694.07 89.5989V177.444H1658.72V95.9433C1658.72 87.8908 1656.9 81.9125 1653.3 78.0387C1649.7 74.165 1644.15 72.2282 1636.68 72.2282C1627.33 72.2282 1620.15 74.9428 1615.11 80.3721C1610.11 85.8014 1607.61 93.6251 1607.61 103.858V177.429H1572.23V46.6677H1572.21V46.6677ZM1490.48 73.1127C1480.98 73.1127 1473.57 76.6662 1468.2 83.7426C1462.86 90.8342 1460.2 100.641 1460.2 113.223C1460.2 125.545 1462.85 135.169 1468.17 142.092C1473.48 149.032 1480.86 152.478 1490.33 152.478C1499.89 152.478 1507.37 148.833 1512.73 141.559C1518.1 134.284 1520.77 124.157 1520.77 111.194C1520.77 99.268 1518.09 89.9497 1512.73 83.224C1507.38 76.4984 1499.95 73.1127 1490.48 73.1127V73.1127ZM1376.04 0.884552H1411.39V177.429H1376.04V0.884552V0.884552ZM1323.11 129.099V114.138C1318.97 116.379 1313.51 118.179 1306.74 119.536L1293.61 121.931C1287.4 123.044 1282.69 125.103 1279.47 128.092C1277.9 129.516 1276.65 131.263 1275.82 133.214C1274.98 135.164 1274.58 137.272 1274.64 139.393C1274.64 144.594 1276.09 148.65 1278.97 151.609C1281.85 154.568 1285.91 156.032 1291.12 156.032C1302.52 156.032 1311.59 152.173 1318.39 144.426C1319.7 142.901 1320.8 140.674 1321.73 137.715C1322.63 134.757 1323.11 131.874 1323.11 129.099ZM1075.8 177.429L1036.72 46.6677H1074.3L1095.84 142.748H1095.81L1115.97 46.6677H1151.44L1171.36 142.977H1171.33L1193.24 46.6677H1228.96L1190.03 177.429H1153.81L1133.16 80.0213H1133.17L1112.03 177.429H1075.8V177.429ZM954.888 73.1127C945.417 73.1127 937.99 76.6662 932.637 83.7426C927.269 90.8342 924.6 100.641 924.6 113.223C924.6 125.545 927.253 135.169 932.576 142.092C937.883 149.032 945.28 152.478 954.766 152.478C964.328 152.478 971.786 148.833 977.139 141.559C982.492 134.284 985.176 124.157 985.176 111.194C985.176 99.268 982.492 89.9497 977.139 83.224C971.771 76.4679 964.359 73.1127 954.888 73.1127V73.1127ZM840.766 46.6677H876.132V177.429H840.766V46.6677V46.6677ZM896.187 500C880.616 500 868.08 495.715 858.579 487.098C849.092 478.527 844.349 467.226 844.349 453.226C844.349 438.447 848.604 426.598 857.16 417.722C865.701 408.846 878.145 403.248 894.494 400.946L923.639 397.072C931.264 396.096 937.593 394.388 942.626 392.009C944.908 390.89 946.695 388.967 947.644 386.61C948.81 384.14 949.264 381.393 948.955 378.679C948.33 374.089 945.905 370.52 941.65 367.897C936.571 364.831 929.266 363.276 919.719 363.276C911.301 363.276 904.743 365.304 900.03 369.315C895.318 373.372 892.801 379.061 892.496 386.442H850.282C851.212 367.378 857.862 353.104 870.261 343.602C882.644 334.131 900.824 329.358 924.783 329.358C945.646 329.358 962.132 333.613 974.211 342.108C986.289 350.602 992.329 362.208 992.329 376.895V467.47C992.329 474.745 992.969 479.838 994.235 482.751C995.501 485.695 998.033 487.998 1001.85 489.69V495.821H954.034V495.226C952.268 489.076 951.073 482.776 950.465 476.407L950.313 476.132C936.404 492.039 918.347 500 896.187 500V500ZM2080.02 500C2064.47 500 2051.93 495.715 2042.43 487.098C2032.96 478.527 2028.21 467.226 2028.21 453.226C2028.21 438.447 2032.47 426.598 2041.02 417.722C2049.55 408.846 2061.99 403.248 2078.34 400.946L2107.5 397.072C2115.1 396.096 2121.44 394.388 2126.48 392.009C2128.76 390.893 2130.54 388.968 2131.48 386.61C2132.64 384.137 2133.09 381.393 2132.79 378.679C2132.19 374.089 2129.75 370.52 2125.48 367.897C2120.39 364.831 2113.1 363.276 2103.55 363.276C2095.15 363.276 2088.61 365.304 2083.86 369.315C2079.15 373.372 2076.62 379.061 2076.33 386.442H2034.12C2035.05 367.378 2041.71 353.104 2054.11 343.602C2066.48 334.131 2084.67 329.358 2108.62 329.358C2129.5 329.358 2145.97 333.613 2158.03 342.108C2170.12 350.602 2176.16 362.208 2176.16 376.895V467.47C2176.16 474.745 2176.79 479.838 2178.07 482.751C2179.32 485.695 2181.85 487.998 2185.66 489.69V495.821H2137.87V495.226C2136.1 489.076 2134.91 482.776 2134.3 476.407L2134.15 476.132C2120.27 492.039 2102.21 500 2080.02 500V500ZM1864.19 276.529H1908.19V354.69L1909.12 353.5C1921.03 337.441 1936.75 329.404 1956.28 329.404C1977.55 329.404 1994.68 337.029 2007.63 352.219C2020.56 367.409 2027.04 387.433 2027.04 412.246C2027.04 438.585 2020.54 459.783 2007.63 475.843C1994.66 491.963 1977.57 500 1956.28 500C1936.86 500 1921.12 492.436 1909.12 477.337L1907.27 474.958V495.821H1864.21V276.529H1864.19V276.529ZM1679.75 500C1664.18 500 1651.65 495.715 1642.15 487.098C1632.65 478.527 1627.94 467.226 1627.94 453.226C1627.94 438.447 1632.19 426.598 1640.72 417.722C1649.28 408.846 1661.72 403.248 1678.04 400.946L1707.2 397.072C1714.82 396.096 1721.14 394.388 1726.2 392.009C1728.35 391.033 1730.01 389.202 1731.2 386.61C1732.39 384.017 1732.8 381.394 1732.51 378.679C1731.89 374.089 1729.45 370.52 1725.21 367.897C1720.12 364.831 1712.83 363.276 1703.26 363.276C1694.86 363.276 1688.32 365.304 1683.61 369.315C1678.86 373.372 1676.36 379.061 1676.04 386.442H1633.86C1634.79 367.378 1641.45 353.104 1653.82 343.602C1666.2 334.131 1684.38 329.358 1708.36 329.358C1729.21 329.358 1745.71 333.613 1757.77 342.108C1769.86 350.602 1775.89 362.208 1775.89 376.895V467.47C1775.89 474.745 1776.54 479.838 1777.79 482.751C1779.08 485.695 1781.61 487.998 1785.42 489.69V495.821H1737.62V495.226C1735.86 489.076 1734.66 482.776 1734.06 476.407L1733.9 476.132C1719.95 492.039 1701.91 500 1679.75 500V500ZM1304.56 477.276C1289.13 462.117 1281.42 441.681 1281.42 415.922C1281.42 389.416 1289.13 368.385 1304.56 352.799C1319.98 337.227 1340.78 329.419 1366.92 329.419C1393.26 329.419 1414.14 337.227 1429.51 352.799C1444.91 368.37 1452.6 389.401 1452.6 415.922C1452.6 441.681 1444.91 462.117 1429.51 477.276C1414.14 492.405 1393.26 500 1366.92 500C1340.77 500 1319.98 492.405 1304.56 477.276ZM669.224 275.934H712.612V367.058L792.664 275.934H848.299L764.999 365.686L853.836 495.821H796.812L733.887 398.841L712.597 421.87V495.837H669.224V275.934ZM2371.69 276.529H2415.69V395.409L2470.98 333.567H2525.33L2464.89 395.165L2526.87 495.821H2474.41L2434.13 426.247L2415.66 445.127V495.821H2371.66V276.529H2371.69V276.529ZM2196.37 333.582H2238.19V357.77C2239.94 354.888 2241.85 352.173 2243.91 349.581C2254.78 336.145 2270.6 329.419 2291.35 329.419C2309.01 329.419 2322.86 334.513 2332.88 344.639C2342.92 354.766 2347.92 368.827 2347.92 386.793V495.837H2303.95V394.555C2303.95 384.551 2301.69 377.124 2297.22 372.304C2292.69 367.516 2285.82 365.091 2276.56 365.091C2264.88 365.091 2255.94 368.461 2249.72 375.217C2243.46 381.943 2240.37 391.688 2240.37 404.407V495.821H2196.37V333.582ZM2133.4 436.038V417.356C2128.24 420.162 2121.4 422.388 2112.93 424.081L2096.49 427.055C2088.74 428.458 2082.87 431.02 2078.83 434.742C2076.87 436.53 2075.31 438.719 2074.27 441.161C2073.23 443.603 2072.73 446.24 2072.79 448.894C2072.79 455.361 2074.61 460.455 2078.21 464.145C2081.84 467.805 2086.9 469.651 2093.43 469.651C2107.67 469.651 2119.05 464.832 2127.53 455.178C2129.16 453.271 2130.56 450.465 2131.69 446.805C2132.84 443.13 2133.4 439.561 2133.4 436.038V436.038ZM1943.65 464.938C1955.65 464.938 1965.03 460.622 1971.77 452.006C1978.47 443.404 1981.84 431.417 1981.84 416.105C1981.84 400.503 1978.47 388.257 1971.77 379.472C1965.05 370.688 1955.71 366.28 1943.8 366.28C1931.92 366.28 1922.59 370.81 1915.86 379.869C1909.17 388.928 1905.8 401.495 1905.8 417.615C1905.8 432.454 1909.17 444.029 1915.86 452.402C1922.51 460.744 1931.77 464.938 1943.65 464.938V464.938ZM1797.29 276.529H1841.25V495.821H1797.29V276.529V276.529ZM1733.12 436.038V417.356C1727.94 420.162 1721.12 422.388 1712.66 424.081L1696.22 427.055C1688.47 428.458 1682.57 431.02 1678.56 434.742C1676.59 436.53 1675.04 438.719 1674 441.161C1672.96 443.603 1672.45 446.24 1672.52 448.894C1672.52 455.361 1674.33 460.455 1677.93 464.145C1681.53 467.805 1686.59 469.651 1693.12 469.651C1707.4 469.651 1718.77 464.832 1727.22 455.178C1728.89 453.271 1730.29 450.465 1731.42 446.805C1732.56 443.13 1733.12 439.561 1733.12 436.038V436.038ZM1465.08 333.582H1506.92V357.77C1508.65 354.888 1510.55 352.173 1512.61 349.581C1523.49 336.145 1539.33 329.419 1560.06 329.419C1577.75 329.419 1591.57 334.513 1601.62 344.639C1611.62 354.766 1616.62 368.827 1616.62 386.793V495.837H1572.66V394.555C1572.66 384.551 1570.4 377.124 1565.93 372.304C1561.43 367.516 1554.55 365.091 1545.26 365.091C1533.61 365.091 1524.68 368.461 1518.42 375.217C1512.2 381.943 1509.07 391.688 1509.07 404.407V495.821H1465.08V333.582V333.582ZM1397.07 451.838C1403.95 443.465 1407.41 431.31 1407.41 415.312C1407.41 398.871 1403.95 386.396 1397.07 377.871C1390.16 369.346 1380.13 365.091 1366.92 365.091C1353.71 365.091 1343.72 369.346 1336.86 377.871C1329.98 386.396 1326.58 398.871 1326.58 415.312C1326.58 431.31 1329.98 443.465 1336.86 451.838C1343.71 460.18 1353.71 464.343 1366.92 464.343C1380.13 464.343 1390.15 460.165 1397.07 451.838ZM1272.14 496.416C1264.79 497.224 1255.76 497.606 1245.04 497.606C1229.53 497.606 1218.38 494.891 1211.61 489.477C1204.82 484.063 1201.43 475.156 1201.43 462.788V363.306H1178.25V333.582H1201.43V289.614H1245.42V333.582H1272.15V363.306H1245.4V455.65C1245.4 459.433 1246.55 461.934 1248.83 463.123C1251.14 464.343 1255.89 464.938 1263.14 464.938H1272.15V496.416H1272.14V496.416ZM1012.52 333.582H1054.34V357.77C1056.09 354.888 1057.98 352.173 1060.06 349.581C1070.93 336.145 1086.76 329.419 1107.52 329.419C1125.19 329.419 1139.03 334.513 1149.05 344.639C1159.07 354.766 1164.07 368.827 1164.07 386.793V495.837H1120.09V394.555C1120.09 384.551 1117.84 377.124 1113.36 372.304C1108.88 367.516 1101.98 365.091 1092.71 365.091C1081.04 365.091 1072.09 368.461 1065.85 375.217C1059.62 381.943 1056.5 391.688 1056.5 404.407V495.821H1012.52V333.582ZM949.565 436.038V417.356C944.395 420.162 937.563 422.388 929.099 424.081L912.658 427.055C904.895 428.458 899.009 431.02 894.998 434.742C893.032 436.527 891.475 438.716 890.432 441.158C889.39 443.601 888.887 446.24 888.958 448.894C888.958 455.361 890.758 460.455 894.372 464.145C898.002 467.805 903.05 469.651 909.577 469.651C923.837 469.651 935.214 464.832 943.678 455.178C945.326 453.271 946.729 450.465 947.857 446.805C948.986 443.13 949.565 439.561 949.565 436.038V436.038Z" fill="black"/>
</svg>
