<svg width="3481" height="500" viewBox="0 0 3481 500" fill="none" xmlns="http://www.w3.org/2000/svg">
<path fill-rule="evenodd" clip-rule="evenodd" d="M416.911 402.135L467.616 400.709C510.577 400.709 531.71 409.186 531.71 419.05C531.71 430.3 521.847 440.164 499.307 442.957V444.383C523.966 446.463 535.929 456.346 535.929 466.903C535.929 482.412 506.358 497.187 467.616 497.187H415.505L416.911 402.135V402.135ZM437.312 476.054L464.784 478.173C490.136 478.173 503.526 479.559 503.526 467.616C503.526 457.059 490.156 456.326 461.278 456.326H438.738L437.312 476.054ZM435.906 441.551L455.633 440.857C488.017 440.857 497.187 435.906 497.187 426.775C497.187 416.911 490.156 417.604 458.446 417.604H439.431L435.906 441.551V441.551ZM671.823 460.585L602.816 414.079L635.913 404.908L695.076 447.195L750.713 411.959L770.421 414.079L696.462 460.585L694.363 497.168H670.417L671.823 460.585V460.585ZM1007.74 410.553L1047.89 409.167L1098.6 472.528L1156.33 410.553H1185.91L1221.12 497.168L1190.14 499.307L1164.79 424.636H1164.08L1103.53 497.168H1080.28L1023.25 424.636H1022.52L995.781 499.307L972.528 497.168L1007.74 410.553V410.553ZM1377.46 404.215L1402.12 402.828L1476.05 497.187L1444.36 499.307L1417.58 468.329H1336.61L1310.55 497.881L1289.44 495.088L1377.46 404.215V404.215ZM1376.05 420.417L1341.55 452.107H1404.93L1376.05 420.417ZM1547.18 400.689H1619.71C1657.05 400.689 1672.54 412.672 1672.54 427.468C1672.54 441.55 1651.42 448.582 1623.95 450.028L1635.22 450.721C1648.59 451.414 1653.52 459.159 1661.27 464.11L1703.51 490.849L1670.42 500L1624.64 471.835C1612.68 465.497 1607.04 460.585 1588.02 460.585H1572.53L1571.13 497.187H1546.47L1547.18 400.689ZM1569.72 445.769L1590.14 444.383C1614.8 444.383 1644.37 442.957 1644.37 430.3C1644.37 421.13 1633.79 417.604 1602.12 417.604H1572.53L1569.72 445.769V445.769ZM1777.45 410.553H1802.09L1800.01 497.168H1776.07L1777.45 410.553V410.553ZM1904.93 402.828H2008.44V419.723H1931.69L1929.57 442.937H2005.62V457.752H1930.99V482.392H2009.17V497.168H1905.62L1904.93 402.828V402.828ZM2392.96 452.801L2391.54 492.949C2369.02 497.168 2345.77 499.287 2328.18 499.287C2269.73 499.287 2220.45 476.034 2220.45 447.869C2220.45 421.09 2263.39 399.976 2321.84 399.976C2342.26 399.976 2377.48 403.502 2395.8 407.721L2378.88 423.229C2362.22 419.549 2345.22 417.657 2328.16 417.584C2282.38 417.584 2257.01 431.667 2257.01 451.394C2257.01 471.815 2285.91 483.085 2331.68 483.085C2345.07 483.085 2356.32 480.253 2366.88 478.173L2368.31 452.801H2392.96V452.801ZM2493.66 402.135L2558.45 400.709C2595.78 400.709 2618.29 410.573 2618.29 424.655C2618.29 438.738 2612.64 450.028 2585.17 451.434L2578.87 454.96C2592.22 456.346 2600.7 460.604 2609.11 464.823L2647.88 490.849L2621.81 498.633L2569.7 471.855C2557 465.517 2551.4 460.605 2533.06 460.605H2517.59L2516.16 497.207H2491.52L2493.66 402.135V402.135ZM2516.91 445.769L2541.55 443.69C2565.5 443.69 2584.5 442.264 2584.5 429.607C2584.5 419.743 2578.89 417.624 2547.16 417.624H2517.61L2516.91 445.769V445.769ZM2786.62 410.553L2816.17 405.641L2890.13 492.949L2856.32 499.287L2829.54 468.309H2754.91L2727.44 499.287L2704.88 495.761L2786.62 410.553V410.553ZM2790.84 420.417H2790.15L2757.03 452.107L2819.01 450.721L2790.84 420.417ZM3009.15 460.585L2940.12 414.079L2970.43 406.334L3031 443.67L3087.33 408.434L3102.1 410.553L3031 456.326L3031.69 497.168H3007.05L3009.15 460.585V460.585ZM347.885 104.223C343.666 53.5177 274.659 37.3158 213.377 37.3158C166.911 37.3158 89.447 45.0603 89.447 95.0721C89.447 122.544 121.831 131.695 153.541 135.913L308.469 157.741C378.882 167.604 431.706 192.957 431.706 245.068C431.706 322.552 311.995 343.686 219.022 343.686C119.038 343.686 79.5833 325.345 55.637 311.955C9.15069 287.316 0 259.844 0 229.579H69.0065C69.0065 288.742 149.283 305.657 218.309 305.657C271.134 305.657 360.561 297.873 360.561 250.733C360.561 216.903 333.802 205.653 245.068 192.977L133.794 177.488C98.5977 172.556 18.3014 157.76 18.3014 100.737C18.3014 50.0318 73.2253 0.0397427 204.92 0.0397427C394.351 0.0397427 413.366 68.3529 416.198 104.262H347.885V104.223V104.223ZM462.684 8.45749H902.809V47.1796H719.022V335.208H645.777V47.1796H462.684V8.45749V8.45749ZM797.179 286.623H876.05V335.208H797.179V286.623ZM1398.59 229.579V252.813C1398.59 291.574 1429.57 305.657 1480.29 305.657C1548.59 305.657 1567.62 280.978 1567.62 249.287V8.45749H1640.87V246.474C1640.87 323.245 1557.76 343.666 1484.51 343.666C1358.46 343.666 1330.3 292.941 1330.3 261.963V229.56H1398.59V229.579V229.579ZM2033.83 343.666C1831.7 343.666 1769.73 242.236 1769.73 171.823C1769.73 101.41 1831.7 0 2033.83 0C2235.92 0 2297.89 101.41 2297.89 171.823C2297.89 242.256 2235.92 343.666 2033.83 343.666V343.666ZM2033.83 38.7221C1916.22 38.7221 1845.09 95.0721 1845.09 171.823C1845.09 248.574 1916.24 304.211 2033.83 304.211C2151.42 304.211 2222.53 248.574 2222.53 171.823C2222.53 95.0721 2151.42 38.7221 2033.83 38.7221ZM2802.11 8.45749H2875.34V335.208H2802.11V182.38H2519.01V335.208H2445.77V8.45749H2519.01V143.658H2802.11V8.45749ZM3409.88 8.45749H3480.99V335.208H3398.59L3123.22 71.1259H3121.83V335.208H3050.68V8.45749H3137.3L3408.45 272.54H3409.88V8.45749Z" fill="black"/>
</svg>
